<svg xmlns="http://www.w3.org/2000/svg" width="842" height="551" viewBox="0 0 842 551" version="1.1"><path d="M 482.462 126.250 L 477.500 131.500 482.750 126.538 C 485.637 123.808, 488 121.446, 488 121.288 C 488 120.541, 487.074 121.372, 482.462 126.250" stroke="none" fill="#04246c" fill-rule="evenodd"/><path d="M 261.001 126.250 L 261.002 250.500 283.751 273.059 C 305.521 294.647, 321.061 309.882, 390.791 378 C 407.963 394.775, 422.408 408.633, 422.891 408.795 C 423.374 408.957, 460.272 373.442, 504.885 329.872 L 586 250.655 586 126.327 L 586 2 423.500 2 L 261 2 261.001 126.250 M 280 131.295 L 280 241.590 302.168 263.045 C 314.360 274.845, 330.887 290.800, 338.896 298.500 C 346.904 306.200, 356.851 315.875, 361.001 320 C 365.151 324.125, 378.434 336.950, 390.520 348.500 C 402.606 360.050, 414.898 371.894, 417.835 374.819 L 423.175 380.138 429.212 374.379 C 432.532 371.212, 438.231 365.653, 441.875 362.026 C 445.519 358.398, 457.909 346.446, 469.409 335.465 C 480.909 324.484, 493.740 312.125, 497.922 308 C 502.104 303.875, 512.065 294.200, 520.058 286.500 C 528.051 278.800, 541.658 265.630, 550.296 257.233 L 566 241.967 566 131.483 L 566 21 423 21 L 280 21 280 131.295 M 339 80.500 L 367.487 109 380.743 109 L 394 109 394 211.738 L 394 314.476 408.737 329.238 L 423.475 344 437.737 329.763 L 452 315.526 452 212.263 L 452 109 465.750 108.844 L 479.500 108.689 507.480 80.344 L 535.461 52 422.987 52 L 310.513 52 339 80.500 M 506.250 102.423 L 478 131.115 478 211.058 C 478 255.026, 478.341 291, 478.757 291 C 479.173 291, 492.001 278.507, 507.263 263.237 L 535.012 235.475 534.756 154.603 L 534.500 73.730 506.250 102.423 M 311 154.757 L 311 234.513 339.256 262.757 C 354.798 278.290, 367.848 291, 368.256 291 C 368.665 291, 369 255.110, 369 211.243 L 369 131.487 340.744 103.243 C 325.202 87.710, 312.152 75, 311.744 75 C 311.335 75, 311 110.890, 311 154.757 M 271 511.958 L 271 549 300.542 549 L 330.084 549 329.792 541.250 L 329.500 533.500 308.265 533.230 L 287.031 532.960 286.765 504.230 L 286.500 475.500 278.750 475.208 L 271 474.916 271 511.958 M 615.667 475.667 C 615.300 476.033, 615 480.201, 615 484.928 L 615 493.522 631.994 510.494 L 648.988 527.465 656.994 519.506 L 665 511.547 665 530.273 L 665 549 673.500 549 L 682 549 682 512 C 682 477.527, 681.881 475, 680.262 475 C 679.306 475, 671.881 481.632, 663.762 489.737 L 649 504.475 634.238 489.737 C 620.673 476.196, 617.524 473.809, 615.667 475.667 M 782 484.757 L 782 494.514 809.257 521.757 C 828.728 541.218, 837.154 549, 838.757 549 L 841 549 841 512.500 L 841 476 833 476 L 825 476 825 495.241 L 825 514.481 805.241 494.741 C 794.373 483.883, 784.698 475, 783.741 475 C 782.205 475, 782 476.151, 782 484.757 M 5 484.013 L 5 492.027 38.250 491.763 L 71.500 491.500 71.792 483.750 L 72.084 476 38.542 476 L 5 476 5 484.013 M 82 476.390 C 82 476.994, 97.766 512.641, 99.625 516.240 C 100.404 517.746, 101.063 519.195, 101.090 519.458 C 101.118 519.722, 104.011 526.364, 107.521 534.219 C 116.490 554.294, 116.126 554.374, 126.986 529.946 L 135.473 510.858 139.899 520.179 C 142.333 525.305, 144.366 529.725, 144.416 530 C 144.467 530.275, 146.306 534.672, 148.504 539.771 C 152.046 547.988, 152.767 549.011, 154.852 548.771 C 156.873 548.538, 158.327 545.962, 165.168 530.500 C 169.549 520.600, 173.976 510.700, 175.006 508.500 C 180.980 495.748, 189 477.592, 189 476.821 C 189 476.327, 185.084 476.052, 180.297 476.211 L 171.594 476.500 164.766 491.500 C 161.010 499.750, 157.961 506.617, 157.989 506.760 C 158.077 507.206, 154.966 513, 154.639 513 C 154.469 513, 150.584 504.653, 146.005 494.451 C 138.844 478.497, 137.395 475.945, 135.641 476.201 C 133.768 476.476, 130.173 481.242, 129.575 484.242 C 129.354 485.349, 123.695 497.810, 118.104 509.500 L 116.191 513.500 112.930 506.212 C 111.136 502.203, 107.342 493.878, 104.499 487.712 L 99.329 476.500 90.665 476.211 C 85.899 476.052, 82 476.132, 82 476.390 M 195 484 L 195 492.027 227.750 491.764 L 260.500 491.500 260.500 484 L 260.500 476.500 227.750 476.236 L 195 475.973 195 484 M 340 484 L 340 492.027 372.750 491.764 L 405.500 491.500 405.500 484 L 405.500 476.500 372.750 476.236 L 340 475.973 340 484 M 416 484 L 416 492 449 492 L 482 492 482 484 L 482 476 449 476 L 416 476 416 484 M 492.667 476.667 C 492.300 477.033, 492 493.458, 492 513.167 L 492 549 500.500 549 L 509 549 509 534 L 509 519 525 519 L 541 519 541 534 L 541 549 549.500 549 L 558 549 558 512.500 L 558 476 549.500 476 L 541 476 541 489 L 541 502 525 502 L 509 502 509 489 L 509 476 501.167 476 C 496.858 476, 493.033 476.300, 492.667 476.667 M 724.713 483.226 L 720.926 490.500 727.213 501.831 C 730.671 508.063, 734.691 515.263, 736.147 517.831 C 737.603 520.399, 739.743 524.300, 740.901 526.500 C 742.060 528.700, 744.310 532.750, 745.901 535.500 C 747.493 538.250, 749.716 542.413, 750.841 544.750 L 752.888 549 762.944 549 C 768.475 549, 772.998 548.663, 772.996 548.250 C 772.994 547.837, 772.028 545.925, 770.849 544 C 769.671 542.075, 767.006 537.350, 764.928 533.500 C 762.850 529.650, 754.883 515.250, 747.224 501.500 C 730.637 471.720, 730.684 471.758, 724.713 483.226 M 30 525.458 L 30 549 38.018 549 L 46.037 549 45.768 525.750 L 45.500 502.500 37.750 502.208 L 30 501.916 30 525.458 M 195 525.500 L 195 549 228.042 549 L 261.084 549 260.792 541.250 L 260.500 533.500 235.750 533.233 L 211 532.965 211 525.483 L 211 518 232.500 518 L 254 518 254 510 L 254 502 224.500 502 L 195 502 195 525.500 M 340 525.500 L 340 549 348 549 L 356 549 356 533.500 L 356 518 377.500 518 L 399 518 399 510 L 399 502 369.500 502 L 340 502 340 525.500 M 440 525.460 L 440 549 448.518 549 L 457.037 549 456.768 525.750 L 456.500 502.500 448.250 502.210 L 440 501.919 440 525.460 M 701.696 524.841 C 694.713 537.422, 689 548.005, 689 548.358 C 689 548.711, 693.470 549, 698.934 549 L 708.868 549 717.054 534.250 L 725.241 519.500 720.743 511.041 C 718.270 506.389, 715.829 502.443, 715.320 502.273 C 714.810 502.103, 708.680 512.259, 701.696 524.841 M 615 529 L 615 549 623.500 549 L 632 549 632 536.727 L 632 524.453 624.228 516.727 C 619.953 512.477, 616.128 509, 615.728 509 C 615.328 509, 615 518, 615 529 M 782 528.773 L 782 549 790 549 L 798 549 798 536.727 L 798 524.453 790 516.500 L 782 508.547 782 528.773" stroke="none" fill="#042464" fill-rule="evenodd"/></svg>